<?xml version="1.0" encoding="utf-8"?>
<!-- Generator: Adobe Illustrator 26.5.0, SVG Export Plug-In . SVG Version: 6.00 Build 0)  -->
<svg version="1.1" id="Layer_1" xmlns="http://www.w3.org/2000/svg" xmlns:xlink="http://www.w3.org/1999/xlink" x="0px" y="0px"
	 viewBox="0 0 175.3 40" style="enable-background:new 0 0 175.3 40;" xml:space="preserve">
<style type="text/css">
	.st0{fill:#FFFFFF;}
	.st1{fill:#008B44;}
	.st2{fill:#00AA4E;}
</style>
<g>
	<path class="st0" d="M38.8,20.7c0-10.6-8.6-19.2-19.2-19.2C9,1.6,0.4,10.1,0.4,20.7c0,10.6,8.6,19.2,19.2,19.2c2,0,3.9-0.3,5.7-0.9
		c0-2.5-0.3-4.8-0.6-6.9c-1.3-0.1-6.8-0.6-9.8-4.4c-3.2-4.1-2.8-10.8-2.9-15.3c-0.1-2.1-1.3-3.5-2.7-3.9c1.7-0.8,8.5-0.3,14,4.6
		c5.3,4.7,6.3,11.2,4.9,16.2c-3.2-9.6-8-14.3-13.8-17.7c6,5.1,11.9,12.9,13.3,26.5C34.2,35.1,38.8,28.5,38.8,20.7"/>
	<path class="st1" d="M166.5,15.7c0-5.4-4.3-9.7-9.7-9.7c-5.4,0-9.7,4.4-9.7,9.7c0,5.4,4.3,9.7,9.7,9.7c1,0,2-0.2,2.9-0.4
		c0-1.2-0.1-2.4-0.3-3.5c-0.7,0-3.5-0.3-5-2.2c-1.6-2.1-1.4-5.5-1.5-7.7c0-1.1-0.6-1.8-1.4-2c0.9-0.4,4.3-0.1,7.1,2.3
		c2.7,2.4,3.2,5.7,2.5,8.2c-1.6-4.8-4-7.2-7-8.9c3,2.6,6,6.5,6.7,13.4C164.2,23,166.5,19.6,166.5,15.7"/>
	<polygon class="st2" points="46.8,6.3 52.2,6.3 59.2,16.7 59.2,6.3 64.7,6.3 64.7,25.1 59.2,25.1 52.2,14.8 52.2,25.1 46.8,25.1 	
		"/>
	<polygon class="st2" points="85.5,6.3 103.2,6.3 103.2,11 97.3,11 97.3,25.1 91.5,25.1 91.5,11 85.5,11 	"/>
	<path class="st2" d="M118,6.3h5.8v11.2c0,1.1-0.2,2.2-0.5,3.1c-0.3,1-0.9,1.8-1.6,2.6c-0.7,0.7-1.5,1.3-2.3,1.6
		c-1.1,0.4-2.5,0.6-4.1,0.6c-0.9,0-1.9-0.1-3-0.2c-1.1-0.1-2-0.4-2.7-0.8c-0.7-0.4-1.4-0.9-2-1.6c-0.6-0.7-1-1.4-1.2-2.2
		c-0.4-1.2-0.5-2.2-0.5-3.2V6.3h5.8v11.4c0,1,0.3,1.8,0.9,2.4c0.6,0.6,1.4,0.9,2.4,0.9c1,0,1.8-0.3,2.3-0.9c0.6-0.6,0.8-1.4,0.8-2.4
		V6.3z"/>
	<path class="st2" d="M138.4,13.1c-0.2,0.3-0.5,0.5-0.9,0.6c-0.8,0.2-1.3,0.3-1.5,0.3h-2.4v-3.8h2.5c1.1,0,1.8,0.2,2.1,0.5
		c0.4,0.3,0.6,0.8,0.6,1.4C138.7,12.4,138.6,12.8,138.4,13.1 M142.5,18.5c-0.4-0.5-0.7-0.8-0.9-1c-0.3-0.2-0.8-0.5-1.5-0.7
		c0.9-0.2,1.5-0.4,2-0.7c0.8-0.5,1.4-1.1,1.8-1.8c0.4-0.8,0.7-1.7,0.7-2.7c0-1.2-0.3-2.2-0.9-3c-0.6-0.8-1.3-1.4-2.3-1.7
		c-0.9-0.3-2.3-0.5-4.1-0.5h-9.6v18.7h5.8v-7.6h0.5c0.5,0,1,0.1,1.4,0.4c0.3,0.2,0.6,0.7,1,1.4l3.1,5.7h6.5l-2.8-5.4
		C143.1,19.4,142.9,19,142.5,18.5"/>
	<path class="st2" d="M71.9,20.2c-1.1-0.4-2.1-1.2-2.9-2.1l-2.6,7h5.9l0.9-3.1l0.5-1.6C73.2,20.4,72.5,20.4,71.9,20.2"/>
	<path class="st1" d="M68.3,14.2c2.7-0.2,5.4,0.3,8.7,2.7c-0.6-2-2.5-3.9-5.4-4.3c-2.9-0.4-5.3,1-5.7,1.7c0.6-0.2,1.3,0,1.8,0.7
		c1.1,1.5,2.5,3.8,4.5,4.4c1.9,0.6,3.9-0.5,4.3-0.8c1.5,1.6,3,3.7,4.3,6.5l0.9-1.1C77.3,16.4,72.3,14.6,68.3,14.2"/>
	<path class="st2" d="M79.8,6.3h-6.4l-2,5.4c0.1,0,0.2,0,0.3,0c1.8,0.2,3.1,0.9,4.1,1.9l0.7-2.4l2,6.8l1.2,4l0.9,3.1h6.1L79.8,6.3z"
		/>
	<polygon class="st0" points="166.3,5.5 166.3,1 164.7,1 164.7,0.1 169,0.1 169,1 167.4,1 167.4,5.5 	"/>
	<polygon class="st0" points="169.7,5.5 169.7,0.1 171.3,0.1 172.3,3.8 173.3,0.1 174.9,0.1 174.9,5.5 173.9,5.5 173.9,1.3 
		172.8,5.5 171.8,5.5 170.7,1.3 170.7,5.5 	"/>
	<path class="st0" d="M48.9,33.4v1.5h0.8c0.5,0,0.8,0,0.9,0c0.2,0,0.4-0.1,0.5-0.2c0.1-0.1,0.2-0.3,0.2-0.5c0-0.2-0.1-0.4-0.2-0.5
		c-0.1-0.1-0.3-0.2-0.5-0.2c-0.1,0-0.5,0-1.1,0H48.9z M48.9,35.9v1.7h1.2c0.5,0,0.7,0,0.9,0c0.2,0,0.3-0.1,0.5-0.3
		c0.1-0.1,0.2-0.3,0.2-0.5c0-0.2,0-0.3-0.1-0.5c-0.1-0.1-0.2-0.2-0.4-0.3c-0.2-0.1-0.5-0.1-1.1-0.1H48.9z M47.7,32.3h2.5
		c0.5,0,0.9,0,1.1,0.1c0.2,0,0.5,0.1,0.7,0.3c0.2,0.1,0.4,0.3,0.5,0.5c0.1,0.2,0.2,0.5,0.2,0.7c0,0.3-0.1,0.6-0.2,0.8
		c-0.2,0.2-0.4,0.4-0.6,0.6c0.4,0.1,0.7,0.3,0.9,0.6c0.2,0.3,0.3,0.6,0.3,0.9c0,0.3-0.1,0.6-0.2,0.8c-0.1,0.3-0.3,0.5-0.5,0.6
		c-0.2,0.2-0.5,0.3-0.8,0.3c-0.2,0-0.7,0-1.5,0h-2.1V32.3z"/>
	<path class="st0" d="M60.3,36.1l-0.9-2.3l-0.8,2.3H60.3z M62.7,38.6h-1.4l-0.5-1.4h-2.5l-0.5,1.4h-1.4l2.4-6.3h1.3L62.7,38.6z"/>
	<path class="st0" d="M70.3,36.3l1.2,0.4c-0.2,0.7-0.5,1.2-0.9,1.5c-0.4,0.3-1,0.5-1.7,0.5c-0.8,0-1.5-0.3-2.1-0.9
		c-0.5-0.6-0.8-1.3-0.8-2.3c0-1,0.3-1.9,0.8-2.4c0.5-0.6,1.3-0.9,2.1-0.9c0.8,0,1.4,0.2,1.9,0.7c0.3,0.3,0.5,0.7,0.6,1.2l-1.3,0.3
		c-0.1-0.3-0.2-0.6-0.5-0.8c-0.2-0.2-0.5-0.3-0.9-0.3c-0.5,0-0.9,0.2-1.1,0.5c-0.3,0.3-0.4,0.9-0.4,1.6c0,0.8,0.1,1.4,0.4,1.7
		c0.3,0.3,0.7,0.5,1.1,0.5c0.3,0,0.6-0.1,0.9-0.3C70.1,37.1,70.2,36.8,70.3,36.3"/>
	<polygon class="st0" points="75.7,38.6 75.7,32.3 76.9,32.3 76.9,35.1 79.5,32.3 81.2,32.3 78.8,34.8 81.3,38.6 79.7,38.6 
		77.9,35.7 76.9,36.7 76.9,38.6 	"/>
	<polygon class="st0" points="91.8,38.6 91.8,33.4 90,33.4 90,32.3 94.9,32.3 94.9,33.4 93.1,33.4 93.1,38.6 	"/>
	<path class="st0" d="M99.6,35.5c0,0.7,0.2,1.3,0.5,1.6c0.3,0.4,0.7,0.6,1.3,0.6c0.5,0,0.9-0.2,1.2-0.5c0.3-0.4,0.5-0.9,0.5-1.6
		c0-0.7-0.2-1.3-0.5-1.6c-0.3-0.4-0.7-0.5-1.3-0.5c-0.5,0-0.9,0.2-1.3,0.5C99.8,34.2,99.6,34.8,99.6,35.5 M98.3,35.5
		c0-0.6,0.1-1.2,0.3-1.6c0.1-0.3,0.3-0.6,0.6-0.9c0.2-0.3,0.5-0.4,0.8-0.6c0.4-0.2,0.8-0.2,1.4-0.2c0.9,0,1.7,0.3,2.2,0.9
		c0.6,0.6,0.8,1.4,0.8,2.4c0,1-0.3,1.8-0.8,2.4c-0.6,0.6-1.3,0.9-2.2,0.9c-0.9,0-1.7-0.3-2.2-0.9C98.6,37.3,98.3,36.5,98.3,35.5"/>
	<polygon class="st0" points="113.8,38.6 113.8,32.3 115.1,32.3 117.7,36.6 117.7,32.3 118.8,32.3 118.8,38.6 117.6,38.6 115,34.5 
		115,38.6 	"/>
	<path class="st0" d="M126.5,36.1l-0.9-2.3l-0.8,2.3H126.5z M128.8,38.6h-1.4l-0.5-1.4h-2.5l-0.5,1.4h-1.4l2.4-6.3h1.4L128.8,38.6z"
		/>
	<polygon class="st0" points="133.2,38.6 133.2,33.4 131.4,33.4 131.4,32.3 136.4,32.3 136.4,33.4 134.5,33.4 134.5,38.6 	"/>
	<path class="st0" d="M140.2,32.3h1.3v3.4c0,0.5,0,0.9,0,1.1c0.1,0.3,0.2,0.5,0.4,0.6c0.2,0.2,0.5,0.2,0.8,0.2
		c0.4,0,0.6-0.1,0.8-0.2c0.2-0.1,0.3-0.3,0.3-0.5c0-0.2,0.1-0.6,0.1-1.1v-3.5h1.3v3.3c0,0.8,0,1.3-0.1,1.6c-0.1,0.3-0.2,0.6-0.4,0.8
		c-0.2,0.2-0.4,0.4-0.7,0.5c-0.3,0.1-0.7,0.2-1.2,0.2c-0.6,0-1.1-0.1-1.4-0.2c-0.3-0.1-0.6-0.3-0.7-0.5c-0.2-0.2-0.3-0.5-0.4-0.7
		c-0.1-0.4-0.1-0.9-0.1-1.6V32.3z"/>
	<path class="st0" d="M150.8,35h0.9c0.6,0,1,0,1.1-0.1c0.1-0.1,0.3-0.1,0.4-0.3c0.1-0.1,0.1-0.3,0.1-0.5c0-0.2-0.1-0.4-0.2-0.5
		c-0.1-0.1-0.3-0.2-0.5-0.2c-0.1,0-0.4,0-0.9,0h-1V35z M149.5,38.6v-6.3h2.7c0.7,0,1.2,0.1,1.5,0.2c0.3,0.1,0.5,0.3,0.7,0.6
		c0.2,0.3,0.3,0.6,0.3,1c0,0.5-0.1,0.9-0.4,1.2c-0.3,0.3-0.7,0.5-1.2,0.6c0.3,0.2,0.5,0.3,0.7,0.5c0.2,0.2,0.4,0.5,0.7,1l0.8,1.2
		h-1.5l-0.9-1.4c-0.3-0.5-0.5-0.8-0.7-0.9c-0.1-0.1-0.2-0.2-0.4-0.3c-0.1,0-0.4-0.1-0.6-0.1h-0.3v2.6H149.5z"/>
	<polygon class="st0" points="158.8,38.6 158.8,32.3 163.5,32.3 163.5,33.4 160.1,33.4 160.1,34.8 163.2,34.8 163.2,35.9 
		160.1,35.9 160.1,37.6 163.6,37.6 163.6,38.6 	"/>
</g>
</svg>
